<svg xmlns="http://www.w3.org/2000/svg" viewBox="0 0 600 600" role="img" aria-labelledby="title desc">
  <title id="title">Seen Through Sound logo</title>
  <desc id="desc">A gold globe-inspired circle with bold ETIB initials, an eye in the center, and a blue banner reading Seen Through Sound.</desc>
  <defs>
    <radialGradient id="gold" cx="45%" cy="35%" r="65%">
      <stop offset="0%" stop-color="#fde047"/>
      <stop offset="65%" stop-color="#facc15"/>
      <stop offset="100%" stop-color="#d4a300"/>
    </radialGradient>
    <filter id="shadow" x="-20%" y="-20%" width="140%" height="140%">
      <feDropShadow dx="7" dy="10" stdDeviation="3" flood-color="#020617" flood-opacity="0.45"/>
    </filter>
  </defs>
  <circle cx="300" cy="300" r="280" fill="url(#gold)" filter="url(#shadow)"/>
  <circle cx="300" cy="300" r="245" fill="none" stroke="#a16207" stroke-width="5" opacity="0.42"/>
  <path d="M145 175c35-35 85-56 140-56 105 0 190 85 190 190 0 71-39 133-97 165 18-45 7-70-22-92-27-21-16-55 10-73 24-17 36-44 20-70-15-24-49-22-74-11-43 18-69-3-78-31-9-29-41-31-89-22z" fill="#8a6a00" opacity="0.22"/>
  <path d="M445 120c36 24 65 58 82 99-38-5-72 2-89 27-20 28 5 60 35 69 26 8 48 29 39 60-9 33-42 47-76 43 21-38 29-92 8-132-22-43-15-84 1-166z" fill="#8a6a00" opacity="0.22"/>
  <path d="M255 425c30 18 62 23 97 16-9 23-22 45-38 65-10 13-6 37-22 43-19 7-31-18-24-44 7-25 13-49-13-80z" fill="#8a6a00" opacity="0.22"/>
  <g fill="#020617">
    <text x="300" y="335" text-anchor="middle" font-family="Arial Black, Impact, sans-serif" font-size="205" font-weight="900" letter-spacing="-10">ETIB</text>
    <ellipse cx="300" cy="167" rx="46" ry="46"/>
    <circle cx="300" cy="167" r="27" fill="#f8fafc"/>
    <circle cx="300" cy="167" r="13" fill="#020617"/>
  </g>
  <rect x="95" y="364" width="410" height="46" rx="23" fill="#3730a3"/>
  <text x="300" y="395" text-anchor="middle" font-family="Arial Black, Arial, sans-serif" font-size="28" font-weight="900" fill="#f8fafc" letter-spacing="2">SEEN THROUGH SOUND</text>
</svg>
