<svg xmlns="http://www.w3.org/2000/svg" viewBox="0 0 600 330" role="img" aria-labelledby="title desc"><title id="title">CFLY logo</title><desc id="desc">Gold crown, center C, and wings inspired by the provided CFLY logo artwork.</desc><defs><linearGradient id="g" x1="0" y1="0" x2="1" y2="1"><stop offset="0" stop-color="#c9933d"/><stop offset="1" stop-color="#7b5a20"/></linearGradient></defs><g fill="url(#g)"><path d="M300 55l18 38h-36zM246 112h108v30H246zM222 88l18-42 30 42h60l30-42 18 42 32-28-16 62H206l-16-62z"/><path d="M276 150h48v36h-30v70h-36V186q0-36 18-36z"/><path d="M260 148c-98-70-183-55-260-115 34 84 120 92 190 85-68 30-122 24-175 6 38 74 114 78 179 56-55 37-105 42-153 29 42 62 105 55 151 23-33 42-69 72-86 135 72-52 100-105 154-219z"/><path d="M340 148c98-70 183-55 260-115-34 84-120 92-190 85 68 30 122 24 175 6-38 74-114 78-179 56 55 37 105 42 153 29-42 62-105 55-151 23 33 42 69 72 86 135-72-52-100-105-154-219z"/></g></svg>
